<svg
  class="ek-social-link"
  version="1.1"
  xmlns="http://www.w3.org/2000/svg"
  xmlns:xlink="http://www.w3.org/1999/xlink"
  x="0px" y="0px"
  viewBox="0 0 34.6 34.6"
  role="img"
  aria-labelledby="photoblog-title"
  title="Photoblog">
<style type="text/css">
  .st0{fill:currentColor;}
  .st1{fill:none;stroke:#FFFFFF;stroke-width:1.74;stroke-miterlimit:10;}
  .st2{fill:#FFFFFF;}
</style>
<title  class="ek-social-link__title" id="photoblog-title">Photoblog</title>
<a class="ek-social-link__link"
  xlink:href="https://photos.klg.bz/"
  tabindex="0"
  role="link">
  <rect x="0" y="0" fill="transparent" width="34.6" height="34.6"></rect>
  <circle class="st0" cx="17.3" cy="17.3" r="17.3"></circle>
  <circle class="st1" cx="17.3" cy="17.3" r="14.1"></circle>
  <polygon class="st0" points="15.1,21 13,17.3 15.1,13.6 19.5,13.6 21.6,17.3 19.5,21"></polygon>
  <path class="st2" d="M5.7,13.7c-0.3,1.1-0.5,2.3-0.5,3.6c0,3.1,1.1,5.8,3,8l6.7-11.5L5.7,13.7L5.7,13.7z"></path>
  <path class="st2" d="M8.4,25.5c2.2,2.4,5.4,3.9,8.9,3.9c0.8,0,1.6-0.1,2.3-0.2L13,17.6L8.4,25.5z"></path>
  <path class="st2" d="M26.1,9c-2.2-2.3-5.3-3.8-8.8-3.8c-0.8,0-1.6,0.1-2.4,0.2l6.6,11.5L26.1,9z"></path>
  <path class="st2" d="M14.6,5.5c-4.1,0.9-7.5,4-8.8,7.9h13.3L14.6,5.5z"></path>
  <path class="st2" d="M28.9,20.9c0.3-1.1,0.5-2.3,0.5-3.6c0-3.1-1.2-5.9-3.1-8.1l-6.6,11.6L28.9,20.9L28.9,20.9z"></path>
  <path class="st2" d="M19.9,29.1c4.2-0.9,7.5-4,8.8-7.9H15.4L19.9,29.1z"></path>
  <path class="st0" d="M19.5,13.4v0.3h-0.1l2,3.6l0.2-0.3L15,5.5c-0.1,0-0.2,0-0.3,0.1l4.6,7.9L19.5,13.4L19.5,13.4z"></path>
  <path class="st0" d="M15,13.5l0.3,0.1v0.1h4.1l-0.2-0.3H5.8c0,0.1-0.1,0.2-0.1,0.3h9.1L15,13.5z"></path>
  <polygon class="st0" points="19.5,13.4 19.2,13.4 19.4,13.7 19.5,13.7"></polygon>
  <path class="st0" d="M7.9,25.8l0.3,0.1l0.3-0.5c-0.1-0.1-0.1-0.2-0.2-0.2L7.9,25.8z"></path>
  <path class="st0" d="M12.9,17.4l0.3-0.1v0.1l2.1-3.6h-0.4L8.2,25.3c0.1,0.1,0.1,0.2,0.2,0.2l4.6-7.9L12.9,17.4z"></path>
  <polygon class="st0" points="15,13.5 14.9,13.7 15.2,13.7 15.3,13.6"></polygon>
  <path class="st0" d="M15.1,21.2v-0.3h0.1l-2-3.6L13,17.6l6.6,11.6c0.1,0,0.2,0,0.3-0.1l-4.5-7.9H15.1L15.1,21.2z"></path>
  <polygon class="st0" points="12.9,17.4 13,17.6 13.2,17.3 13.1,17.2"></polygon>
  <path class="st0" d="M28.8,21.2h0.6v-0.3h-0.5C28.8,21,28.8,21.1,28.8,21.2z"></path>
  <path class="st0" d="M19.7,20.9l-0.1,0.2L19.3,21v-0.1h-4.1l0.2,0.3h13.3c0-0.1,0.1-0.2,0.1-0.3H19.7L19.7,20.9z"></path>
  <polygon class="st0" points="15.1,21.2 15.4,21.2 15.2,20.9 15.1,20.9"></polygon>
  <path class="st0" d="M26.6,8.7l-0.3-0.1L26.1,9c0.1,0.1,0.1,0.2,0.2,0.2L26.6,8.7z"></path>
  <path class="st0" d="M21.7,17.2l-0.3,0.1v-0.1l-2,3.6h0.4l6.6-11.6C26.3,9.1,26.3,9,26.2,9l-4.5,8L21.7,17.2z"></path>
  <polygon class="st0" points="21.7,17.2 21.6,17 21.4,17.3 21.5,17.4"></polygon>
  <polygon class="st0" points="19.3,21 19.6,21.1 19.7,20.9 19.4,20.9"></polygon>
</a>
</svg>
